<?xml version="1.0" standalone="no"?><!DOCTYPE svg PUBLIC "-//W3C//DTD SVG 1.1//EN" "http://www.w3.org/Graphics/SVG/1.1/DTD/svg11.dtd"><svg width="100%" height="100%" viewBox="0 0 64 64" version="1.1" xmlns="http://www.w3.org/2000/svg" xmlns:xlink="http://www.w3.org/1999/xlink" xml:space="preserve" style="fill-rule:evenodd;clip-rule:evenodd;stroke-linejoin:round;stroke-miterlimit:1.41421;"><circle cx="30" cy="27.86" r="21" style="fill:#45d4d9;"/><path d="M30,9.86c10.945,0.014 20.138,8.583 20.92,19.5c0,-0.49 0.08,-1 0.08,-1.5c0,-11.52 -9.48,-21 -21,-21c-11.52,0 -21,9.48 -21,21c0,0.51 0,1 0.08,1.5c0.782,-10.917 9.975,-19.486 20.92,-19.5l0,0Z" style="fill:#2d95b5;fill-rule:nonzero;"/><path d="M17.19,57l26,0c1.097,0 2,0.903 2,2l0,2l-30,0l0,-2c0,-1.097 0.903,-2 2,-2l0,0Z" style="fill:#f74b50;fill-rule:nonzero;"/><path d="M33.57,52.46l0,4.54l-6.77,0l0,-4.46c1.042,0.124 2.091,0.187 3.14,0.19c1.215,0.001 2.428,-0.089 3.63,-0.27Z" style="fill:#5c3b51;fill-rule:nonzero;"/><path d="M35.88,32.32l3.53,3.62l-3.52,4.59l-4.44,3.72l-1.59,4.54l-1.95,0l-0.17,-4.49l0.65,-2.45l0.61,-6.18l-1.06,-3.75l1.15,-2.16l-1.09,-1.16l-5.62,-6.15l0,-6.69l0.78,-1.15l0.5,-1.9l-0.76,-1l0,-0.61l-0.07,-2.91c2.275,-0.925 4.715,-1.378 7.17,-1.33c2.35,-0.093 4.695,0.295 6.89,1.14l-1.31,2l-0.85,0.35l-2.43,1l-0.59,2.34l2.29,1.39l3,-2l0.63,1.4l2,1.61l0.23,2.48l-3.12,0.17l-0.37,0.95l-2.46,0.18l-2.91,2.48l-2.69,-0.3l-0.14,1.29l1,2.11l3.11,2l2.23,2.55l1.37,2.32Z" style="fill:#8bd94f;fill-rule:nonzero;"/><path d="M36.89,8l-1.31,2l-0.85,0.35c-1.552,-0.346 -3.14,-0.511 -4.73,-0.49c-2.442,-0.005 -4.866,0.422 -7.16,1.26l-0.07,-2.91c2.292,-0.94 4.753,-1.4 7.23,-1.35c2.35,-0.093 4.695,0.295 6.89,1.14l0,0Z" style="fill:#5fbf39;fill-rule:nonzero;"/><path d="M56,27.86c-0.077,-14.21 -11.79,-25.86 -26,-25.86c-1.076,-0.001 -2.152,0.066 -3.22,0.2c-0.543,0.072 -0.93,0.577 -0.86,1.12c0.072,0.526 0.551,0.907 1.08,0.86c0.995,-0.124 1.997,-0.184 3,-0.18c1.04,0.004 2.079,0.074 3.11,0.21l-0.34,1.79c-0.92,-0.098 -1.845,-0.144 -2.77,-0.14c-0.36,0 -0.7,0 -1,0l-0.22,0l-1,0.08c-1.043,0.102 -2.076,0.286 -3.09,0.55c-9.754,2.446 -16.649,11.283 -16.649,21.339c0,10.388 7.358,19.43 17.529,21.541l-0.31,1.85c-2.355,-0.459 -4.628,-1.272 -6.74,-2.41c-0.152,-0.087 -0.325,-0.132 -0.5,-0.132c-0.555,0 -1.012,0.457 -1.012,1.012c0,0.364 0.196,0.7 0.512,0.88c2.582,1.387 5.383,2.324 8.28,2.77l0,2.66l-8.61,0c-1.646,0 -3,1.354 -3,3l0,2c0,0.549 0.451,1 1,1l30,0c0.549,0 1,-0.451 1,-1l0,-2c0,-1.646 -1.354,-3 -3,-3l-8.62,0l0,-2.71c12.29,-2.194 21.351,-12.946 21.43,-25.43l0,0ZM50,27.86c-0.01,10.486 -8.265,19.274 -18.73,19.94l1,-3l4.23,-3.55c0.057,-0.042 0.108,-0.093 0.15,-0.15l3.52,-4.59c0.302,-0.394 0.268,-0.956 -0.08,-1.31l-3.44,-3.53l-1.3,-2.23c-0.037,-0.052 -0.077,-0.102 -0.12,-0.15l-2.23,-2.51c-0.06,-0.07 -0.131,-0.131 -0.21,-0.18l-2.79,-1.83l-0.75,-1.6l1.7,0.19c0.276,0.029 0.551,-0.058 0.76,-0.24l2.62,-2.24l2.14,-0.16c0.386,-0.029 0.722,-0.279 0.86,-0.64l0.13,-0.35l2.47,-0.13c0.273,-0.011 0.53,-0.134 0.71,-0.34c0.172,-0.21 0.258,-0.479 0.24,-0.75l-0.27,-2.51c-0.024,-0.266 -0.154,-0.51 -0.36,-0.68l-1.77,-1.46l-0.54,-1.19c-0.16,-0.36 -0.519,-0.593 -0.913,-0.593c-0.194,0 -0.384,0.057 -0.547,0.163l-2.48,1.67l-1.12,-0.66l0.28,-1.11l2.84,-1.14c0.19,-0.08 0.35,-0.216 0.46,-0.39l0.87,-1.34c7.622,3.002 12.662,10.398 12.67,18.59l0,0ZM34.91,9.26l-3,1.21c-0.299,0.12 -0.523,0.377 -0.6,0.69l-0.58,2.33c-0.11,0.43 0.078,0.884 0.46,1.11l2.33,1.4c0.309,0.178 0.691,0.178 1,0l2,-1.34l0.15,0.34c0.063,0.138 0.156,0.26 0.27,0.36l1.64,1.34l0.09,1l-2.08,0.11c-0.393,0.021 -0.739,0.272 -0.88,0.64l-0.14,0.36l-1.83,0.14c-0.213,0.013 -0.416,0.093 -0.58,0.23l-2.46,2.13l-2.26,-0.25c-0.265,-0.031 -0.531,0.044 -0.74,0.21c-0.21,0.168 -0.343,0.413 -0.37,0.68l-0.13,1.29c-0.018,0.181 0.009,0.363 0.08,0.53l1,2.11c0.078,0.171 0.203,0.317 0.36,0.42l3,1.91l2.07,2.36l1.29,2.26c0.041,0.07 0.092,0.134 0.15,0.19l2.93,3l-2.93,3.81l-4.35,3.65c-0.142,0.116 -0.249,0.268 -0.31,0.44l-1.35,3.86l-0.28,0l-0.13,-3.4l0.62,-2.3l0,-0.17l0.65,-6.14c0.02,-0.123 0.02,-0.247 0,-0.37l-1,-3.4l1,-1.81c0.202,-0.38 0.137,-0.849 -0.16,-1.16l-6.44,-7l0,-6l0.61,-0.89c0.063,-0.092 0.11,-0.193 0.14,-0.3l0.43,-1.84c0.079,-0.297 0.016,-0.615 -0.17,-0.86l-0.56,-0.72l-0.06,-2.5l0.64,-0.21c0.48,-0.14 1,-0.27 1.45,-0.37l0.15,0c0.63,-0.2 1.27,-0.34 1.97,-0.34c0.664,-0.071 1.332,-0.108 2,-0.11c1.802,0.009 3.595,0.261 5.33,0.75l-0.42,0.62ZM10,27.86c0.01,-7.853 4.645,-15.004 11.81,-18.22l0.05,2.11c0.005,0.214 0.079,0.421 0.21,0.59l0.45,0.59l-0.32,1.27l-0.68,1c-0.115,0.164 -0.177,0.36 -0.18,0.56l0,6.69c0.001,0.248 0.093,0.487 0.26,0.67l5.63,6.17l0.6,0.63l-0.83,1.53c-0.118,0.228 -0.143,0.494 -0.07,0.74l1,3.58l-0.56,5.87l-0.6,2.36c-0.02,0.096 -0.02,0.194 0,0.29l0.12,3.29c-9.67,-1.522 -16.872,-9.931 -16.89,-19.72ZM27.89,49.76c0.698,0.069 1.399,0.102 2.1,0.1c12.06,-0.013 21.977,-9.94 21.977,-22c0,-9.332 -5.937,-17.694 -14.747,-20.77c-0.801,-0.329 -1.631,-0.58 -2.48,-0.75l0.31,-1.8c10.945,2.362 18.828,12.126 18.828,23.323c0,13.089 -10.771,23.86 -23.86,23.86c-0.741,0 -1.481,-0.034 -2.218,-0.103l-0.6,0l0.31,-1.85l0.38,-0.01ZM44.19,59l0,1l-28,0l0,-1c0,-0.549 0.451,-1 1,-1l26,0c0.549,0 1,0.451 1,1ZM27.8,56l0,-2.36l0.2,0c0.67,0.05 1.32,0.08 2,0.08l0.76,0c0.533,0 1.053,-0.03 1.56,-0.09c0.103,0.005 0.207,0.005 0.31,0l0,2.37l-4.83,0Z" style="fill:#2c2a3d;fill-rule:nonzero;"/></svg>